<?xml version="1.0" encoding="utf-8"?>
<!-- Generator: Adobe Illustrator 27.7.0, SVG Export Plug-In . SVG Version: 6.00 Build 0)  -->
<svg version="1.1" id="ALBUMS_xA0_Image_00000065788889857876587850000010604208208492000433_"
	 xmlns="http://www.w3.org/2000/svg" xmlns:xlink="http://www.w3.org/1999/xlink" x="0px" y="0px" viewBox="0 0 120 120"
	 style="enable-background:new 0 0 120 120;" xml:space="preserve">
<g>
	<g>
		<path d="M60.12,57.81c7.97,0,15.95,0,23.92,0c0.63,0,0.63,0,0.63,0.64c0,8.03-0.02,16.05,0.02,24.08
			c0.01,1.75-1.28,3.59-3.11,4.15c-0.21,0.06-0.42,0.06-0.63,0.06c-13.88,0-27.76,0.01-41.64-0.01c-1.42,0-2.39-0.89-3.13-2.01
			c-0.42-0.63-0.61-1.34-0.6-2.12c0.01-8.07,0.01-16.13,0.01-24.2c0-0.59,0-0.59,0.59-0.59C44.15,57.81,52.14,57.81,60.12,57.81z"/>
		<path d="M74.79,53.15c-1.68,0-3.36,0-5.04,0c-0.55,0-0.58,0-0.62-0.6c-0.09-1.52-0.52-2.94-1.35-4.22
			c-1.64-2.53-3.95-3.97-6.97-4.24c-4.79-0.43-9.06,3.04-9.73,7.79c-0.04,0.3-0.08,0.61-0.08,0.91c-0.01,0.29-0.14,0.36-0.4,0.35
			c-0.47-0.01-0.93,0-1.4,0c-2.95,0-5.89,0-8.84,0c-0.55,0-0.56,0-0.54-0.55c0.14-4.67,1.69-8.82,4.67-12.4
			c3.32-3.99,7.57-6.42,12.71-7.13c6.38-0.87,12.02,0.88,16.77,5.25c3.49,3.21,5.53,7.22,6.26,11.9c0.13,0.82,0.2,1.64,0.2,2.47
			c0,0.38-0.13,0.47-0.49,0.47C78.23,53.14,76.51,53.15,74.79,53.15z"/>
		<path d="M60.14,53.15c-1.39,0-2.77,0-4.16,0c-0.48,0-0.51-0.04-0.43-0.5c0.42-2.29,2.32-3.88,4.65-3.87
			c2.26,0.01,4.16,1.61,4.57,3.88c0.08,0.45,0.05,0.49-0.4,0.49C62.96,53.15,61.55,53.15,60.14,53.15z"/>
	</g>
</g>
</svg>
