<?xml version="1.0" encoding="utf-8"?>
<!-- Generator: Adobe Illustrator 27.7.0, SVG Export Plug-In . SVG Version: 6.00 Build 0)  -->
<svg version="1.1" id="ARTISTS_xA0_Image_00000111176777556342919430000000844649808260650918_"
	 xmlns="http://www.w3.org/2000/svg" xmlns:xlink="http://www.w3.org/1999/xlink" x="0px" y="0px" viewBox="0 0 120 120"
	 style="enable-background:new 0 0 120 120;" xml:space="preserve">
<g>
	<g>
		<path d="M59.96,86.19c-6,0-12-0.02-18,0.01c-1.6,0.01-2.78-0.71-3.77-1.84c-0.75-0.86-1.06-1.91-1.17-3.04
			c-0.33-3.37,0.38-6.55,1.69-9.62c2.36-5.56,6.37-9.54,11.81-12.11c0.4-0.19,0.42-0.23,0.08-0.53c-2.1-1.81-3.59-4.02-4.44-6.67
			c-2.01-6.2,0.59-13.2,6.16-16.6c2.67-1.63,5.57-2.36,8.67-2.11c7.19,0.59,12.24,5.95,13.14,12.03c0.65,4.38-0.34,8.3-3.16,11.74
			c-0.5,0.61-1.07,1.15-1.68,1.65c-0.28,0.23-0.26,0.33,0.07,0.46c2.19,0.91,4.17,2.17,5.91,3.76c3.56,3.25,6.05,7.18,7.18,11.9
			c0.54,2.24,0.72,4.52,0.36,6.82c-0.3,1.93-1.9,3.58-3.81,4.12c-0.17,0.05-0.37,0.03-0.56,0.03
			C72.28,86.19,66.12,86.19,59.96,86.19z"/>
	</g>
</g>
</svg>
