<svg version="1.1" id="Layer_1" xmlns="http://www.w3.org/2000/svg" xmlns:xlink="http://www.w3.org/1999/xlink" x="0px" y="0px" style="enable-background:new 0 0 1920 1080;" xml:space="preserve" viewBox="747.98 326.67 426.02 426.03">
<g>
	<g>
		<path d="M918.3,496.9c-1,0-1.9,0.1-2.9,0.1c-26.4,0-53,0-79.3,0c-0.9,0-1.9,0-3.1,0c0,85.2,0,170.1,0,254.8    c-0.3,0.3-0.4,0.4-0.4,0.4c-0.1,0.1-0.1,0.1-0.2,0.1c-0.8,0.1-1.6,0.1-2.4,0.1c-27.1,0-54.2,0-81.3-0.1c-0.2,0-0.4-0.1-0.7-0.3    c0-141.7,0-283.2,0-425c28.2,0,56.4,0,84.9,0c0.3,5.6,0.1,11.2,0.1,16.9c0,5.6,0,11.6,0,17.1c0,5.7,0,11.3,0,16.9s0,11.1,0,16.7    c0,5.7,0,11.2,0,17.2c7.2,0.1,14.2,0,21.2,0.1c7.1,0,14.2,0,21.3,0c7,0,14.1,0,21.1,0s14,0,21.3,0c0,1.1,0.1,2,0.1,3    c0,26.3,0,52.6,0,78.8C918.1,494.9,918.2,496,918.3,496.9C918.2,497,918.3,496.9,918.3,496.9z"/>
		<path d="M1003.1,582.7c0.7,0.1,1.4,0.3,2.1,0.3c26.8,0,53.5,0,80.4,0c0.6,0,1.3,0,2.3,0c0.1-7.8,0-15.6,0.1-23.4    c0-7.7,0-15.4,0-23.1c0-7.8,0-15.5,0-23.4c0-7.8,0-15.5,0-23.4c0-7.7,0-15.4,0-23.1c0-7.8,0-15.5,0-23.4c0-7.7,0-15.4,0-23.1    c0-7.8,0-15.5,0-23.4c0-7.8,0-15.5,0-23.4c0-7.7,0-15.4,0-23.1s0-15.5,0-23.5c28.6,0,57.3,0,86,0c0,142,0,283.8,0,426    c-28.6,0-57.3,0-86,0c0-28.3,0-56.5,0-84.9c-7.2-0.3-14.2-0.1-21.2-0.1c-7.1,0-14.2,0-21.3,0c-7,0-14.1,0-21.1,0s-14.1,0-21.3,0    c-0.1-0.8-0.2-1.5-0.2-2.2c0-27,0-54,0-81C1002.8,584.1,1003,583.4,1003.1,582.7L1003.1,582.7z"/>
		<path d="M1003.1,582.7c-0.8,0.1-1.6,0.3-2.3,0.3c-26.9,0-53.7,0-80.6,0c-0.6,0-1.3,0-2,0c-0.1-0.6-0.2-1.2-0.2-1.7    c0-27.6,0-55.1,0-82.7c0-0.2,0-0.5,0.1-0.7L918,498c10.4,0,20.7,0,31.1,0c16.9,0,33.8,0,50.9,0c0.9,0,1.9,0,3.1,0    c0,1.2,0,2.1,0,3.1c0,26.3,0,52.6,0,78.9C1002.8,580.8,1003,581.8,1003.1,582.7L1003.1,582.7z"/>
	</g>
</g>
</svg>