<?xml version="1.0" encoding="utf-8"?>
<!-- Generator: Adobe Illustrator 27.7.0, SVG Export Plug-In . SVG Version: 6.00 Build 0)  -->
<svg version="1.1" id="PLAYLIST_xA0_Image_00000124867353772880036800000012025901110126455959_"
	 xmlns="http://www.w3.org/2000/svg" xmlns:xlink="http://www.w3.org/1999/xlink" x="0px" y="0px" viewBox="0 0 120 120"
	 style="enable-background:new 0 0 120 120;" xml:space="preserve">
<g>
	<g>
		<path d="M60,85.39c-7.31,0-14.61,0-21.92,0c-1.74,0-3.31-1.56-3.31-3.29c0-8.92,0-17.84,0-26.76c0-1.71,0.89-2.93,2.53-3.46
			c0.58-0.19,1.17-0.24,1.77-0.24c10.32,0,20.64,0,30.96,0c3.57,0,7.15,0,10.72,0c0.52,0,1.04,0.03,1.55,0.09
			c1.63,0.2,3,1.74,3,3.37c0,8.99-0.02,17.97,0.02,26.96c0.01,1.46-1.53,3.31-3.33,3.31C74.67,85.39,67.33,85.39,60,85.39z
			 M54.51,68.11c0,1.64,0,3.28,0,4.92c0.01,1.64,1.82,2.77,3.29,2.05c0.32-0.16,0.62-0.36,0.93-0.54c2.58-1.48,5.17-2.93,7.74-4.43
			c1.69-0.99,1.69-3.04,0-4.01c-2.85-1.64-5.72-3.27-8.58-4.89c-1.5-0.84-3.38,0.29-3.38,2.02C54.5,64.86,54.51,66.49,54.51,68.11z"
			/>
		<path d="M60.1,47.15c-7.09,0-14.19,0-21.28,0c-0.81,0-1.46-0.29-1.89-0.98c-0.43-0.69-0.45-1.42-0.07-2.13
			c0.39-0.73,1.02-1.1,1.86-1.1c3.28,0,6.56,0,9.84,0c10.91,0,21.81,0,32.72-0.01c0.73,0,1.35,0.2,1.8,0.78
			c0.55,0.69,0.64,1.47,0.26,2.25c-0.38,0.79-1.04,1.19-1.92,1.19C74.31,47.15,67.2,47.15,60.1,47.15z"/>
		<path d="M59.99,38.51c-6.32,0-12.64,0-18.96,0c-0.92,0-1.63-0.33-2.03-1.2c-0.63-1.37,0.39-3,1.89-3.01
			c2.52-0.02,5.04-0.01,7.56-0.01c10.13,0,20.26,0,30.4,0c0.39,0,0.77,0.02,1.13,0.2c1.21,0.61,1.45,1.84,1.07,2.89
			c-0.29,0.79-1.03,0.98-1.77,1.11c-0.18,0.03-0.37,0.01-0.56,0.01C72.47,38.51,66.23,38.51,59.99,38.51z"/>
	</g>
</g>
</svg>
