<?xml version="1.0" encoding="utf-8"?>
<!-- Generator: Adobe Illustrator 27.7.0, SVG Export Plug-In . SVG Version: 6.00 Build 0)  -->
<svg version="1.1" id="SONGS_xA0_Image_00000054950651922234843770000007871849322884588691_"
	 xmlns="http://www.w3.org/2000/svg" xmlns:xlink="http://www.w3.org/1999/xlink" x="0px" y="0px" viewBox="0 0 120 120"
	 style="enable-background:new 0 0 120 120;" xml:space="preserve">
<g>
	<g>
		<path d="M63.63,61.32c0,4.16,0.05,8.32-0.02,12.48c-0.05,3.07-1.09,5.81-3,8.23c-1.63,2.07-3.73,3.46-6.16,4.36
			c-1.04,0.38-2.15,0.56-3.26,0.69c-1.79,0.2-3.53-0.08-5.22-0.61c-1.54-0.48-2.96-1.25-4.23-2.26c-1.73-1.37-3.04-3.06-3.96-5.07
			c-0.66-1.43-1.03-2.92-1.17-4.48c-0.29-3.26,0.63-6.2,2.46-8.87c1.58-2.29,3.73-3.86,6.31-4.86c1.18-0.46,2.41-0.7,3.67-0.82
			c2.35-0.22,4.56,0.27,6.7,1.2c0.71,0.31,1.03,0.12,1.03-0.66c0-7.27-0.01-14.53,0.01-21.8c0-1.21,0.2-2.4,1.04-3.35
			c0.72-0.83,1.62-1.39,2.74-1.45c5.83-0.35,11.67-0.11,17.5-0.13c1.02,0,2.11,0.24,2.94,0.95c0.99,0.86,1.71,1.87,1.68,3.28
			c-0.04,1.81-0.03,3.63,0,5.44c0.02,1.94-1.62,4.04-3.77,4.28c-0.87,0.1-1.74,0.15-2.62,0.15c-4,0-8,0-12,0
			c-0.63,0-0.65,0.02-0.65,0.66C63.63,52.9,63.63,57.11,63.63,61.32z"/>
	</g>
</g>
</svg>
