<?xml version="1.0" encoding="utf-8"?>
<!-- Generator: Adobe Illustrator 26.5.0, SVG Export Plug-In . SVG Version: 6.00 Build 0)  -->
<svg version="1.1" id="VERIFICATION_xA0_Image_00000056394837909873564450000002945440771003207609_"
	 xmlns="http://www.w3.org/2000/svg" xmlns:xlink="http://www.w3.org/1999/xlink" x="0px" y="0px" viewBox="0 0 512 512"
	 style="enable-background:new 0 0 512 512;" xml:space="preserve">
<g>
	<g>
		<path d="M121.8,116.5c9.1,0.4,18.3,0.7,27.4,1.4c4.6,0.3,6.8-1.2,7.9-5.9c2.2-9.9,4.4-19.9,8-29.2c2.9-7.5,6.9-14.9,12.1-20.9
			c9.4-10.7,24.5-13.2,37.9-6c9.7,5.2,18.3,12.6,27.2,19.1c3.5,2.5,6.9,5.3,10.1,8.1c2.5,2.2,4.4,2,6.9-0.1
			c8.7-7.5,17.2-15.3,26.5-22c5.2-3.9,11.5-7,17.7-8.7c14.8-4.1,29.6,1.9,36.9,15.8c5,9.5,8.1,20.3,11,30.7
			c5.6,20.7,5.4,20.4,27.1,18c9.5-1,19.5-1.1,28.7,0.8c20.9,4.1,31.6,22.2,26.1,43.4c-3,11.3-7.9,22.1-11.7,33.3
			c-3.6,10.6-4.6,7.4,4.7,13.9c8.7,6.1,18,11.4,26.4,17.9c9.8,7.6,16.4,17.4,16.3,30.5c-0.1,10.7-4.9,19.4-12.8,26
			c-6.1,5.1-13,9.1-19.7,13.5c-5,3.3-10.3,6.2-15.2,9.6c-1.1,0.8-1.9,3.4-1.5,4.7c3.8,10.6,8.4,21,11.6,31.7
			c2,6.9,3.5,14.5,2.7,21.5c-2.2,18.1-15.6,29.9-33.9,30.3c-12.6,0.3-25.3-0.3-37.9-1c-4.8-0.2-6.7,1.6-7.7,6.1
			c-2.4,10.2-4.8,20.3-7.9,30.3c-4.4,14.2-12.3,25.4-27.9,29.1c-8.8,2.1-17.1-0.3-24.6-4.1c-7.6-3.9-14.5-9.2-21.5-14.2
			c-4.8-3.5-9.3-7.6-13.8-11.5c-2.1-1.8-4-1.9-6.1,0c-6.6,5.6-13.2,11.2-19.8,16.8c-7.9,6.7-16.1,12.9-26.7,14.9
			c-13.2,2.4-24-1.9-32.3-12c-7.7-9.4-10.4-21-13.2-32.5c-1.4-5.6-2.9-11.2-4.2-16.9c-0.7-2.9-2.2-4-5.2-3.9
			c-12,0.5-24,1.1-35.9,0.9c-5.7-0.1-11.6-1.3-17-3.2c-16.6-6.1-24.9-23-20-41.6c3-11.3,8-22.1,11.7-33.3c3.5-10.4,4.7-7.4-4.7-13.9
			c-9-6.2-18.6-11.8-27.2-18.5c-9.8-7.7-16.1-17.7-15.5-30.9c0.4-9.1,4-17,10.6-23c6.5-5.9,13.8-10.8,21-15.9
			c4.7-3.4,9.7-6.5,14.8-9.2c3.7-2,3.8-4.4,2.5-7.7c-3.9-9.9-8-19.7-11.5-29.7c-3.1-8.9-4.6-18-1.8-27.4
			c4.1-13.7,16.3-23.3,31.4-24.6c4-0.3,8-0.4,12-0.7C121.8,116.3,121.8,116.4,121.8,116.5z M233.3,276.5c-0.7-0.2-0.9-0.2-1-0.2
			c-8.4-8.3-16.7-16.8-25.2-25c-8.8-8.5-21.5-8.5-30.1-0.2c-8.4,8.1-9.3,21.1-1.1,29.7c14.5,15.2,29.3,30.1,44.5,44.5
			c9.3,8.8,22.9,7.3,30.9-2.7c28.2-35,56.3-70.2,84.3-105.3c7.4-9.3,5.8-22.8-3.2-30c-9.6-7.6-22.8-6.1-30.6,3.7
			c-15.2,19-30.4,38-45.6,57C248.5,257.6,240.8,267.1,233.3,276.5z"/>
	</g>
</g>
</svg>
